<?xml version="1.0" standalone="no"?>
<!DOCTYPE svg PUBLIC "-//W3C//DTD SVG 20010904//EN"
 "http://www.w3.org/TR/2001/REC-SVG-20010904/DTD/svg10.dtd">
<svg version="1.0" xmlns="http://www.w3.org/2000/svg"
 width="866.000000pt" height="650.000000pt" viewBox="0 0 866.000000 650.000000"
 preserveAspectRatio="xMidYMid meet">

<g transform="translate(0.000000,650.000000) scale(0.100000,-0.100000)"
fill="#000000" stroke="none">
<path d="M4015 6024 c-448 -56 -855 -204 -1215 -443 -181 -120 -280 -200 -436
-356 -444 -442 -715 -990 -800 -1620 -27 -196 -24 -553 5 -745 95 -623 357
-1148 790 -1581 460 -460 1040 -736 1689 -805 174 -19 509 -14 668 10 623 93
1154 358 1588 792 428 428 692 952 791 1569 22 133 31 536 16 675 -43 396
-155 758 -336 1082 -426 762 -1166 1277 -2028 1409 -178 28 -560 35 -732 13z
m522 -1149 c284 -37 536 -138 763 -306 113 -84 269 -243 353 -360 77 -107 184
-313 221 -427 26 -79 49 -199 41 -213 -3 -4 -1 -9 5 -11 16 -5 32 -190 28
-341 -1 -80 -6 -148 -9 -152 -17 -17 -275 167 -263 187 4 7 3 8 -5 4 -13 -8
-78 42 -73 56 1 5 -1 7 -6 4 -13 -8 -113 84 -106 96 4 6 2 8 -3 5 -13 -8 -36
17 -25 28 4 5 2 5 -4 2 -14 -8 -174 155 -174 177 0 4 -8 16 -19 27 -10 11 -40
64 -66 117 -26 53 -50 103 -54 111 -8 16 -68 37 -506 180 -578 188 -885 332
-982 459 -27 36 -33 53 -33 93 0 42 5 54 37 90 68 75 181 123 372 159 179 33
331 38 508 15z m-1249 -543 c62 -343 240 -715 466 -974 265 -303 631 -526
1031 -628 143 -36 272 -50 464 -50 191 0 296 11 511 55 63 13 117 21 120 18 8
-7 -50 -162 -93 -248 -69 -140 -154 -252 -292 -391 -196 -196 -389 -316 -652
-404 -189 -63 -332 -83 -543 -77 -204 6 -309 23 -473 78 -645 216 -1084 800
-1114 1484 -15 349 76 675 272 969 95 142 258 319 276 298 3 -4 15 -62 27
-130z"/>
<path d="M5315 3610 c-3 -6 1 -7 9 -4 18 7 21 14 7 14 -6 0 -13 -4 -16 -10z"/>
<path d="M5477 3449 c7 -7 15 -10 18 -7 3 3 -2 9 -12 12 -14 6 -15 5 -6 -5z"/>
</g>
</svg>
